<?xml version="1.0" standalone="no"?>
<!DOCTYPE svg PUBLIC "-//W3C//DTD SVG 20010904//EN"
 "http://www.w3.org/TR/2001/REC-SVG-20010904/DTD/svg10.dtd">
<svg version="1.0" xmlns="http://www.w3.org/2000/svg"
 width="700.000000pt" height="700.000000pt" viewBox="0 0 700.000000 700.000000"
 preserveAspectRatio="xMidYMid meet">
<metadata>
Created by potrace 1.14, written by Peter Selinger 2001-2017
</metadata>
<g transform="translate(0.000000,700.000000) scale(0.100000,-0.100000)"
fill="#000000" stroke="none">
<path d="M3328 6996 c-1 -2 -34 -6 -73 -10 -38 -3 -81 -8 -95 -10 -14 -3 -54
-10 -90 -16 -84 -14 -265 -62 -355 -94 -331 -116 -634 -306 -882 -553 -178
-178 -240 -258 -400 -518 -21 -34 -113 -225 -113 -235 0 -4 -48 -34 -107 -66
-508 -270 -873 -686 -1071 -1220 -38 -102 -84 -260 -97 -329 -2 -16 -7 -39 -9
-50 -5 -24 -15 -96 -26 -180 -10 -82 -5 -414 9 -500 5 -38 13 -88 16 -110 4
-22 17 -83 30 -135 165 -659 619 -1213 1235 -1507 127 -61 358 -140 459 -158
19 -3 37 -7 40 -9 3 -2 28 -7 55 -10 27 -4 52 -9 55 -10 17 -11 178 -21 336
-21 212 0 303 8 460 42 39 8 81 17 95 19 52 10 291 94 366 128 42 20 79 35 80
33 2 -2 4 -288 4 -636 1 -590 2 -636 19 -681 63 -166 275 -211 404 -86 79 77
77 55 77 773 0 348 1 633 3 633 1 0 49 -20 106 -45 92 -40 234 -90 285 -101
10 -2 33 -8 51 -14 18 -6 43 -13 56 -15 95 -19 139 -26 174 -31 22 -3 64 -9
92 -13 73 -11 382 -11 473 0 451 54 856 229 1200 518 64 54 217 204 275 272
216 249 431 681 481 969 3 14 7 32 9 40 48 171 54 619 10 835 -53 259 -116
438 -233 664 -43 82 -182 296 -219 336 -10 11 -40 46 -66 78 -176 209 -420
398 -699 542 -38 20 -68 40 -68 47 0 6 -27 65 -61 132 -68 136 -182 314 -273
426 -58 72 -244 263 -296 305 -188 152 -287 218 -453 305 -254 132 -519 214
-827 255 -47 7 -436 16 -442 11z m285 -2025 c25 -12 61 -40 78 -62 57 -73 59
-89 59 -569 l0 -437 594 298 594 298 69 -2 c142 -6 241 -109 243 -253 0 -58
-33 -134 -77 -176 -16 -15 -327 -176 -693 -358 -366 -182 -680 -338 -697 -348
l-33 -17 0 -927 c0 -511 -3 -928 -7 -928 -8 0 -126 65 -190 106 l-51 33 -44
-28 c-55 -35 -194 -111 -202 -111 -3 0 -6 249 -6 553 l0 552 -192 97 c-106 53
-420 209 -698 348 -299 149 -518 264 -537 282 -118 113 -86 323 62 401 30 16
58 22 115 22 l75 0 581 -293 c319 -160 583 -292 587 -292 4 0 7 364 7 808 0
878 -1 863 55 937 68 88 202 117 308 66z"/>
</g>
</svg>
